<?xml version="1.0" encoding="UTF-8"?>
<svg version="1.1" xmlns="http://www.w3.org/2000/svg" width="1024" height="1024">
<path d="M0 0 C2.82170499 1.41085249 2.85076235 3.07142544 4 6 C5.70949923 9.05856187 7.46739986 12.07822641 9.25390625 15.09179688 C12 19.79435668 12 19.79435668 12 22 C12.66 22.33 13.32 22.66 14 23 C15.27433262 25.21063805 16.46435611 27.41810182 17.625 29.6875 C18.33687155 31.05035284 19.05045926 32.41231042 19.765625 33.7734375 C20.13236328 34.47178711 20.49910156 35.17013672 20.87695312 35.88964844 C22.65406018 39.22906438 24.50379459 42.52509485 26.375 45.8125 C27.02210938 46.95332031 27.66921875 48.09414063 28.3359375 49.26953125 C29.86848528 52.0257003 29.86848528 52.0257003 32 54 C32.91327769 55.68817998 33.78436931 57.39949491 34.625 59.125 C35.07101562 60.03507812 35.51703125 60.94515625 35.9765625 61.8828125 C36.31429688 62.58148438 36.65203125 63.28015625 37 64 C37.66 63.67 38.32 63.34 39 63 C39.22945312 64.14082031 39.45890625 65.28164063 39.6953125 66.45703125 C40.93770236 71.39731974 43.24188887 75.36374643 45.875 79.6875 C46.8616524 81.34577425 47.84728978 83.00465276 48.83203125 84.6640625 C49.34717285 85.52676758 49.86231445 86.38947266 50.39306641 87.27832031 C53.71822582 92.91017646 56.90753947 98.62141804 60.11474609 104.32104492 C60.59379395 105.16513916 61.0728418 106.0092334 61.56640625 106.87890625 C61.98865479 107.6272876 62.41090332 108.37566895 62.84594727 109.14672852 C63.99188988 111.14286631 63.99188988 111.14286631 66 113 C67.03161608 114.98387708 68.03523618 116.98276656 69 119 C69.66 119 70.32 119 71 119 C71.3403125 120.20914063 71.680625 121.41828125 72.03125 122.6640625 C74.27435682 129.3750398 77.93544879 135.29857171 81.5 141.375 C82.21892547 142.61257038 82.93718146 143.85052991 83.65478516 145.08886719 C85.08812901 147.56042537 86.52571332 150.02944782 87.96582031 152.49707031 C89.81289976 155.66854456 91.62651542 158.85800855 93.4296875 162.0546875 C93.93306641 162.94236816 94.43644531 163.83004883 94.95507812 164.74462891 C95.88315221 166.38216266 96.80653765 168.02236496 97.72460938 169.66552734 C98.76020109 171.47699484 99.87165973 173.24480402 101 175 C101.66 175 102.32 175 103 175 C103.11448486 175.72856201 103.22896973 176.45712402 103.34692383 177.20776367 C104.021218 180.09071784 104.98005226 182.11571461 106.44921875 184.67578125 C106.9611377 185.57514404 107.47305664 186.47450684 108.00048828 187.40112305 C108.55720215 188.36187744 109.11391602 189.32263184 109.6875 190.3125 C110.25968262 191.31128174 110.83186523 192.31006348 111.42138672 193.33911133 C113.27291151 196.56409711 115.13569244 199.78238914 117 203 C117.9588208 204.66240723 117.9588208 204.66240723 118.93701172 206.35839844 C120.82862714 209.63732585 122.72533703 212.91322919 124.625 216.1875 C125.21627686 217.2081958 125.80755371 218.2288916 126.41674805 219.28051758 C126.97273682 220.23337646 127.52872559 221.18623535 128.1015625 222.16796875 C128.58963379 223.00610107 129.07770508 223.8442334 129.58056641 224.70776367 C131.47606983 227.76880283 133.45327093 230.45327093 136 233 C136 233.99 136 234.98 136 236 C136.93811576 237.72267091 137.94705263 239.40752022 139 241.0625 C142 245.79166667 142 245.79166667 142 248 C142.66 248.33 143.32 248.66 144 249 C144.8726892 250.40177604 145.6709775 251.84996598 146.4375 253.3125 C146.96988281 254.31152344 147.50226563 255.31054688 148.05078125 256.33984375 C148.35580566 256.91460449 148.66083008 257.48936523 148.97509766 258.08154297 C154.976234 269.31473244 161.20260917 280.43086494 167.5 291.5 C168.00418457 292.38993652 168.50836914 293.27987305 169.02783203 294.19677734 C169.50333496 295.02902832 169.97883789 295.8612793 170.46875 296.71875 C170.88576172 297.45029297 171.30277344 298.18183594 171.73242188 298.93554688 C172.9726187 301.03384233 172.9726187 301.03384233 174.51611328 302.98413086 C176.0687345 305.09337624 177.15143486 307.17102378 178.2734375 309.53515625 C181.11677004 315.3375507 184.34020245 320.87616409 187.625 326.4375 C188.85951036 328.54288939 190.09388342 330.64835928 191.328125 332.75390625 C193.12495466 335.81144526 194.92263807 338.86848033 196.72070312 341.92529297 C198.27601868 344.57294426 199.82599657 347.22365254 201.375 349.875 C201.84502441 350.67091553 202.31504883 351.46683105 202.79931641 352.28686523 C206 357.77297053 206 357.77297053 206 360 C206.66 360.33 207.32 360.66 208 361 C209.25113072 363.19022884 210.42021209 365.37885317 211.5625 367.625 C214.26294967 372.81306208 217.06833092 377.88872937 220.125 382.875 C224.15046022 389.4689773 227.93250313 396.18635221 231.6875 402.9375 C236.36715032 411.34721475 241.12567285 419.70159833 246 428 C250.78887434 436.15393882 255.46675557 444.36069477 260.0625 452.625 C265.12116501 461.72050668 270.31344429 470.72371764 275.65063477 479.65869141 C278.86997024 485.05184633 281.98466455 490.49004633 285 496 C285.66 495.67 286.32 495.34 287 495 C287.144375 495.928125 287.28875 496.85625 287.4375 497.8125 C287.92100111 501.00725111 287.92100111 501.00725111 289 504 C289.99 504.33 290.98 504.66 292 505 C292 505.99 292 506.98 292 508 C292.92987435 509.90810797 293.94069213 511.77721202 294.9921875 513.62109375 C295.61480469 514.72130859 296.23742187 515.82152344 296.87890625 516.95507812 C297.54403216 518.11602219 298.20939916 519.27682816 298.875 520.4375 C300.16472715 522.70665361 301.45381645 524.97616991 302.7421875 527.24609375 C303.3182373 528.25341553 303.89428711 529.2607373 304.48779297 530.29858398 C305.72448146 532.50781197 306.89461564 534.72315221 308 537 C305.55483031 538.22258485 303.97942743 538.12690818 301.24560547 538.12939453 C300.24325363 538.13238556 299.24090179 538.13537659 298.20817566 538.13845825 C297.10564957 538.13659515 296.00312347 538.13473206 294.8671875 538.1328125 C293.13369804 538.13642288 293.13369804 538.13642288 291.3651886 538.1401062 C284.88028891 538.1479022 278.3960434 538.11822884 271.91137695 538.06640625 C269.87291712 538.05119732 267.83445518 538.03647244 265.79598808 538.0222702 C264.41254732 538.01258674 263.02911031 538.00235322 261.64567757 537.99158478 C252.74640987 537.92804271 243.89265992 538.06822636 235.00024414 538.45626831 C229.93898235 538.66580315 224.87766701 538.78349902 219.81329346 538.88909912 C217.41587659 538.96242807 215.01934424 539.07817869 212.62615967 539.23834229 C197.51724301 540.22602155 197.51724301 540.22602155 191 537 C184.98112034 531.1705529 181.62734774 523.48711197 178.30130005 515.91534424 C176.66626862 512.25233088 174.74860785 508.88712782 172.7109375 505.43359375 C171.59663612 503.43618957 170.48450853 501.43757046 169.375 499.4375 C167.72065139 496.4667679 166.06569246 493.49638136 164.40917969 490.52685547 C163.53225013 488.95439862 162.65750202 487.38072067 161.78613281 485.80517578 C160.3536021 483.24312431 159.08707127 481.08707127 157 479 C155.93817312 477.04252074 154.92274623 475.05962074 153.9375 473.0625 C153.41027344 472.00160156 152.88304687 470.94070313 152.33984375 469.84765625 C151 467 151 467 150 464 C149.34 463.67 148.68 463.34 148 463 C147.04130663 461.43226738 146.15149514 459.82212009 145.296875 458.1953125 C144.76513672 457.19661133 144.23339844 456.19791016 143.68554688 455.16894531 C143.12931641 454.12319336 142.57308594 453.07744141 142 452 C140.9063069 450.01531855 139.80732884 448.03354043 138.703125 446.0546875 C138.14222168 445.04946045 137.58131836 444.0442334 137.00341797 443.00854492 C129.76890682 430.0797019 122.40303646 417.25258752 114.71875 404.5859375 C114.1633252 403.6678833 113.60790039 402.7498291 113.03564453 401.80395508 C111.9471038 400.00695069 110.85447075 398.21241745 109.75732422 396.4206543 C109.2676416 395.61281494 108.77795898 394.80497559 108.2734375 393.97265625 C107.83435059 393.25343994 107.39526367 392.53422363 106.94287109 391.79321289 C106 390 106 390 106 388 C105.34 387.67 104.68 387.34 104 387 C103.02617353 385.4019493 102.12025557 383.76220025 101.25 382.10546875 C100.71761719 381.10563965 100.18523437 380.10581055 99.63671875 379.07568359 C99.09660156 378.06070801 98.55648438 377.04573242 98 376 C96.02065929 372.42582771 94.01077936 368.869066 92 365.3125 C91.1646875 363.83426758 91.1646875 363.83426758 90.3125 362.32617188 C85.69015671 354.17000587 80.97216555 346.07197588 76.23242188 337.98364258 C71.71298264 330.25792897 67.29800969 322.47739424 62.91210938 314.67529297 C58.27892655 306.45125203 53.53495965 298.29428738 48.75585938 290.15429688 C48.20736328 289.21908203 47.65886719 288.28386719 47.09375 287.3203125 C46.30677734 285.98081543 46.30677734 285.98081543 45.50390625 284.61425781 C43.64106712 281.37606277 41.88350368 278.08627641 40.15820312 274.77294922 C38.96502582 272.69269393 38.96502582 272.69269393 36 271 C36 270.01 36 269.02 36 268 C35.08661059 265.98635445 35.08661059 265.98635445 33.796875 263.8515625 C33.31677979 263.02108398 32.83668457 262.19060547 32.34204102 261.33496094 C31.81666748 260.44067383 31.29129395 259.54638672 30.75 258.625 C29.64957613 256.72665724 28.54932066 254.82821686 27.44921875 252.9296875 C26.59529541 251.46354004 26.59529541 251.46354004 25.72412109 249.96777344 C22.97901016 245.24254425 20.27136212 240.49607017 17.5625 235.75 C17.07942383 234.90646973 16.59634766 234.06293945 16.09863281 233.19384766 C15.63424805 232.38222168 15.16986328 231.5705957 14.69140625 230.734375 C14.01875732 229.56358398 14.01875732 229.56358398 13.33251953 228.36914062 C12.41357918 226.73531923 11.52010419 225.08700211 10.64794922 223.42773438 C10.21627441 222.61111328 9.78459961 221.79449219 9.33984375 220.953125 C8.96077881 220.21739258 8.58171387 219.48166016 8.19116211 218.72363281 C7.03163794 216.67684264 7.03163794 216.67684264 4 216 C3.9175 215.113125 3.835 214.22625 3.75 213.3125 C2.90172948 209.56597188 1.45638497 207.88379596 -1 205 C-2.5333805 207.59748082 -4.05179668 210.20187896 -5.5625 212.8125 C-6.21895508 213.91948242 -6.21895508 213.91948242 -6.88867188 215.04882812 C-7.29794922 215.76103516 -7.70722656 216.47324219 -8.12890625 217.20703125 C-8.51119385 217.8616333 -8.89348145 218.51623535 -9.28735352 219.19067383 C-10.2956378 221.18290864 -10.2956378 221.18290864 -9 224 C-9.99 224 -10.98 224 -12 224 C-12.49886719 224.88816406 -12.99773437 225.77632812 -13.51171875 226.69140625 C-15.52664461 230.27733187 -17.5443362 233.86169667 -19.5625 237.44580078 C-20.5345397 239.1729542 -21.50587495 240.90050425 -22.4765625 242.62841797 C-28.58159629 253.49420408 -34.74973188 264.3158986 -41.0625 275.0625 C-46.12899107 283.69142229 -50.99301756 292.40889976 -55.74902344 301.2121582 C-59.04883672 307.30340248 -62.46583137 313.30548734 -66.00756836 319.25878906 C-70.49314879 326.80027583 -74.85738957 334.41071454 -79.22583008 342.02050781 C-82.40036543 347.53827761 -85.60464764 353.03367686 -88.88671875 358.48828125 C-89.49539795 359.50253174 -90.10407715 360.51678223 -90.73120117 361.56176758 C-91.88979856 363.48636656 -93.05509107 365.40695465 -94.2277832 367.32299805 C-94.74042725 368.17547119 -95.25307129 369.02794434 -95.78125 369.90625 C-96.23564453 370.65197266 -96.69003906 371.39769531 -97.15820312 372.16601562 C-97.43599609 372.77123047 -97.71378906 373.37644531 -98 374 C-97.67 374.66 -97.34 375.32 -97 376 C-97.99 376 -98.98 376 -100 376 C-100.27150879 376.71736328 -100.54301758 377.43472656 -100.82275391 378.17382812 C-101.99498436 380.98795913 -103.34089652 383.56325638 -104.8359375 386.21875 C-105.39917725 387.22220459 -105.96241699 388.22565918 -106.54272461 389.25952148 C-107.14737549 390.32887939 -107.75202637 391.3982373 -108.375 392.5 C-109.00349854 393.61640869 -109.63199707 394.73281738 -110.27954102 395.88305664 C-121.97925842 416.63909624 -133.87880091 437.2819965 -145.8359375 457.890625 C-151.17600908 467.09452974 -156.47546869 476.32089236 -161.75 485.5625 C-167.19035663 495.09373044 -172.64467902 504.61668422 -178.125 514.125 C-178.72795898 515.17244385 -179.33091797 516.2198877 -179.95214844 517.29907227 C-190.39015491 535.39015491 -190.39015491 535.39015491 -192 537 C-193.5181852 537.09578593 -195.04082396 537.12188147 -196.56202698 537.12025452 C-197.54785767 537.12162918 -198.53368835 537.12300385 -199.5493927 537.12442017 C-200.63983383 537.12082489 -201.73027496 537.11722961 -202.85375977 537.11352539 C-204.56573044 537.11374443 -204.56573044 537.11374443 -206.31228638 537.1139679 C-210.10534531 537.11326818 -213.89835584 537.10547307 -217.69140625 537.09765625 C-220.31314568 537.09579228 -222.93488546 537.09436828 -225.55662537 537.09336853 C-231.76501955 537.09025551 -237.97339621 537.08204252 -244.18178266 537.07201904 C-251.24817441 537.06085699 -258.31456699 537.05534722 -265.38096535 537.05032361 C-279.92065263 537.03985988 -294.46032607 537.022261 -309 537 C-308.21459321 535.41537277 -307.42757535 533.831544 -306.63989258 532.24804688 C-305.98275017 530.92492493 -305.98275017 530.92492493 -305.31233215 529.57507324 C-303.23904753 525.50685032 -300.9263575 521.59071105 -298.59960938 517.6640625 C-296.63353608 514.54161145 -296.63353608 514.54161145 -296 511 C-295.57001709 510.57187012 -295.14003418 510.14374023 -294.69702148 509.70263672 C-292.59032321 507.58896764 -291.32697166 505.35022554 -289.84765625 502.7578125 C-289.24187744 501.70166748 -288.63609863 500.64552246 -288.01196289 499.55737305 C-287.04697876 497.85834839 -287.04697876 497.85834839 -286.0625 496.125 C-285.39034744 494.95001637 -284.71773519 493.7752956 -284.04467773 492.60083008 C-282.02354281 489.0707551 -280.0110221 485.53584649 -278 482 C-275.85492975 478.22873135 -273.70961678 474.45760396 -271.5625 470.6875 C-270.82954712 469.39924316 -270.82954712 469.39924316 -270.08178711 468.08496094 C-266.81627585 462.36710929 -263.44337661 456.7395659 -259.9140625 451.1796875 C-257.68687926 447.47983616 -255.63606344 443.70106046 -253.57958984 439.90429688 C-251.1008008 435.34669649 -248.55326874 430.82868633 -246 426.3125 C-245.4423999 425.32556152 -244.8847998 424.33862305 -244.31030273 423.32177734 C-239.71785264 415.21730304 -235.0242059 407.17460119 -230.31152344 399.13964844 C-225.42065838 390.77662183 -220.68449933 382.33219383 -215.97119141 373.86816406 C-212.31910067 367.32136179 -208.58738416 360.83256981 -204.75683594 354.38891602 C-201.25132811 348.47426436 -197.87114259 342.49205699 -194.5 336.5 C-189.11314144 326.93068096 -183.60372588 317.44352362 -178 308 C-176.2473685 305.0432153 -174.49802154 302.08451181 -172.75 299.125 C-172.36175049 298.47160645 -171.97350098 297.81821289 -171.57348633 297.14501953 C-168.80552995 292.45879956 -166.1841045 287.70223998 -163.58886719 282.91845703 C-156.56881109 270.02390408 -149.37681466 257.21527502 -141.890625 244.58544922 C-132.45728413 228.66479073 -123.29600093 212.58832526 -114.28588867 196.42504883 C-108.77449916 186.55596137 -103.13537652 176.76324131 -97.47265625 166.98046875 C-96.90820801 166.00255371 -96.34375977 165.02463867 -95.76220703 164.01708984 C-94.51517178 161.88203004 -93.24852098 159.758371 -91.96826172 157.64306641 C-90.99203857 156.01957275 -90.99203857 156.01957275 -89.99609375 154.36328125 C-89.39853271 153.38270752 -88.80097168 152.40213379 -88.18530273 151.3918457 C-87.59857788 150.20788208 -87.59857788 150.20788208 -87 149 C-87.33 148.34 -87.66 147.68 -88 147 C-87.01 146.67 -86.02 146.34 -85 146 C-83.7436635 143.98285268 -83.7436635 143.98285268 -82.6875 141.5 C-81.0843898 138.12777706 -79.43853729 135.00644084 -77.3125 131.9375 C-74.25612717 127.4692594 -71.41790338 122.88583628 -68.625 118.25 C-68.17165283 117.51644287 -67.71830566 116.78288574 -67.2512207 116.02709961 C-64.1690149 110.90171971 -64.1690149 110.90171971 -64 105 C-63.38125 104.938125 -62.7625 104.87625 -62.125 104.8125 C-61.42375 104.544375 -60.7225 104.27625 -60 104 C-59.29796729 102.3479188 -58.63871116 100.6775787 -58 99 C-56.92806693 97.00132909 -55.82180614 95.02088231 -54.69140625 93.0546875 C-54.36908524 92.49204193 -54.04676422 91.92939636 -53.7146759 91.34970093 C-52.66711178 89.52296425 -51.61490718 87.6989501 -50.5625 85.875 C-49.83064721 84.60137757 -49.09904115 83.32761333 -48.36767578 82.05371094 C-46.24945387 78.36663141 -44.12517224 74.68307778 -42 71 C-41.20650146 69.62279785 -41.20650146 69.62279785 -40.39697266 68.21777344 C-34.47126604 57.93559411 -28.48847886 47.68675225 -22.49853516 37.44189453 C-19.25844302 31.89418122 -16.03860247 26.33556186 -12.84375 20.76171875 C-12.15332225 19.55867402 -11.46289258 18.35563039 -10.77246094 17.15258789 C-9.44401722 14.8373628 -8.11991089 12.51982245 -6.79785156 10.20092773 C-6.1994043 9.15751221 -5.60095703 8.11409668 -4.984375 7.0390625 C-4.45553711 6.11303223 -3.92669922 5.18700195 -3.38183594 4.23291016 C-2 2 -2 2 0 0 Z " fill="#0277D3" transform="translate(512,208)"/>
<path d="M0 0 C2.8394198 3.39187213 5.12917043 6.77749981 7.25 10.65625 C7.85215332 11.7503418 8.45430664 12.84443359 9.07470703 13.97167969 C9.38845276 14.54672241 9.70219849 15.12176514 10.02545166 15.7142334 C11.69200746 18.76803746 13.37446475 21.81307623 15.0546875 24.859375 C15.39152557 25.4710553 15.72836365 26.0827356 16.07540894 26.71295166 C19.03930283 32.08920856 22.06727381 37.42669932 25.125 42.75 C30.90270278 52.81863199 36.61831764 62.92150985 42.32373047 73.03125 C44.05931504 76.10504964 45.79694742 79.17768366 47.53515625 82.25 C48.11531494 83.27561035 48.69547363 84.3012207 49.29321289 85.35791016 C50.39504705 87.30562386 51.4970832 89.25322332 52.59936523 91.20068359 C53.10282471 92.09094238 53.60628418 92.98120117 54.125 93.8984375 C54.84816406 95.17605957 54.84816406 95.17605957 55.5859375 96.47949219 C57.39595639 99.70577587 59.16432037 102.95433502 60.921875 106.20947266 C61.99685128 108.1575309 61.99685128 108.1575309 64 110 C64.97329389 111.87770852 65.90275719 113.77819167 66.8125 115.6875 C74.05616258 130.53472166 82.55757294 144.82055652 91.10473633 158.94848633 C94 163.78565814 94 163.78565814 94 166 C74.44884274 167.14289304 54.92532207 167.13328975 35.34963918 167.10139394 C30.78667814 167.0950526 26.22371611 167.09454822 21.66075134 167.09336853 C13.05897262 167.09028648 4.45720692 167.08211619 -4.14456612 167.07201904 C-13.95385906 167.06075959 -23.7631527 167.05532292 -33.57245052 167.05032361 C-53.71497423 167.03993019 -73.85748629 167.02239269 -94 167 C-93.28197558 162.99722407 -92.17238929 160.19348046 -90.0859375 156.68359375 C-89.48910156 155.67103516 -88.89226562 154.65847656 -88.27734375 153.61523438 C-87.64957031 152.56658203 -87.02179688 151.51792969 -86.375 150.4375 C-85.77042969 149.41591797 -85.16585938 148.39433594 -84.54296875 147.34179688 C-82.02984786 143.09521201 -79.50993128 138.85279912 -76.97753906 134.61767578 C-76.3378418 133.53856934 -75.69814453 132.45946289 -75.0390625 131.34765625 C-74.45592285 130.36933838 -73.8727832 129.39102051 -73.27197266 128.38305664 C-71.84304032 126.15614617 -71.84304032 126.15614617 -72 124 C-71.35502563 123.36457275 -71.35502563 123.36457275 -70.69702148 122.71630859 C-68.54443539 120.53925778 -67.31558248 118.22618118 -65.84765625 115.5390625 C-65.24252197 114.43892822 -64.6373877 113.33879395 -64.01391602 112.20532227 C-63.53717941 111.33050705 -63.53717941 111.33050705 -63.05081177 110.4380188 C-61.36744786 107.34995437 -59.66667977 104.27147776 -57.96875 101.19140625 C-57.62820084 100.57251022 -57.28765167 99.9536142 -56.93678284 99.31596375 C-54.02874536 94.0356938 -51.06300635 88.79064713 -48.0625 83.5625 C-47.59158936 82.74112549 -47.12067871 81.91975098 -46.63549805 81.07348633 C-45.64078403 79.33972842 -44.6455697 77.60625747 -43.64990234 75.87304688 C-40.38597141 70.18942166 -37.12925466 64.50166965 -33.875 58.8125 C-33.53065918 58.21055817 -33.18631836 57.60861633 -32.83154297 56.98843384 C-27.52362149 47.70567699 -22.29117929 38.38393728 -17.11914062 29.02490234 C-11.67114304 19.1676397 -6.20055586 9.41048993 0 0 Z " fill="#0258B4" transform="translate(512,579)"/>
<path d="M0 0 C2.18277725 2.04271016 3.73383316 4.00878626 5.20703125 6.60546875 C5.82928589 7.69214844 5.82928589 7.69214844 6.46411133 8.80078125 C6.90907959 9.58839844 7.35404785 10.37601562 7.8125 11.1875 C8.79105179 12.90009106 9.77025069 14.61231249 10.75 16.32421875 C11.27207031 17.23864746 11.79414062 18.15307617 12.33203125 19.09521484 C15.86189965 25.24251787 19.46200001 31.3493452 23.05200195 37.46166992 C26.82517058 43.91052697 30.44754866 50.4273784 34 57 C40.66473157 69.23345248 40.66473157 69.23345248 47.8125 81.1875 C51.42646618 86.96694892 54.78734277 92.86964887 58.125 98.8125 C62.61824617 106.81267001 67.17287548 114.77129705 71.8125 122.6875 C77.01782658 131.57096452 82.15284754 140.49175552 87.25 149.4375 C92.6511642 158.91397107 98.11339795 168.34979727 103.66601562 177.73828125 C111.46158744 190.9553708 119.15648442 204.23009534 126.74609375 217.56640625 C129.74196337 222.82315881 132.7865942 228.04718043 135.875 233.25 C140.69582507 241.37670265 145.28156483 249.63075902 149.87817383 257.88574219 C153.52613582 264.41931574 157.25138569 270.89010155 161.1472168 277.27880859 C163.54254258 281.20780745 165.796403 285.18868129 167.9296875 289.265625 C168.92869721 291.05545085 168.92869721 291.05545085 170.48046875 292.38012695 C172.51784996 294.55204602 173.16037708 297.01960322 174.13378906 299.78857422 C175.63205125 303.613619 177.75934309 307.05228845 179.875 310.5625 C180.29652344 311.27857422 180.71804688 311.99464844 181.15234375 312.73242188 C182.40860718 314.84348229 183.66782229 316.93569 185 319 C185.28354497 319.56683754 185.56708994 320.13367508 185.85922718 320.71768951 C187.55709329 323.69542669 188.83435669 325.65606027 192.21294403 326.65296078 C195.05047891 326.90390489 197.81680305 326.93105396 200.6652832 326.88647461 C201.7389061 326.89725037 202.81252899 326.90802612 203.91868591 326.91912842 C207.46341616 326.9465124 211.00604418 326.92464056 214.55078125 326.90234375 C217.00987571 326.91172669 219.4689602 326.92418314 221.92802429 326.93959045 C228.39729051 326.97186073 234.86584894 326.9623572 241.33514404 326.94421387 C247.93770134 326.9330686 254.54007615 326.96134721 261.14257812 326.98632812 C274.09516465 327.02951442 287.04738663 327.02991828 300 327 C300 325.68 300 324.36 300 323 C299.34 323 298.68 323 298 323 C297.505 321.80375 297.01 320.6075 296.5 319.375 C294.24935865 314.26212997 291.49218028 309.49455561 288.64257812 304.69873047 C286 300.20409972 286 300.20409972 286 298 C285.01 297.67 284.02 297.34 283 297 C282.05175781 295.09716797 282.05175781 295.09716797 281.203125 292.6171875 C278.98894578 286.71340718 275.990311 281.51836735 272.75 276.125 C271.50006749 274.01375127 270.25142345 271.90173932 269.00390625 269.7890625 C268.35180176 268.68723633 267.69969727 267.58541016 267.02783203 266.45019531 C263.52093859 260.50153574 260.10779945 254.49870234 256.6875 248.5 C256.00016488 247.29597861 255.31282765 246.09195842 254.62548828 244.88793945 C250.74641228 238.08822682 246.89792287 231.27208908 243.07763672 224.43920898 C240.55353503 219.94131499 237.9441752 215.49813765 235.3125 211.0625 C231.08828438 203.94093792 227.03005007 196.73297905 223 189.5 C218.73826769 181.85376704 214.42809303 174.24838596 209.95776367 166.72241211 C206.00167182 160.04497258 202.15610384 153.3050517 198.3125 146.5625 C192.92329131 137.1088998 187.50968959 127.67033625 182.0625 118.25 C177.70050844 110.70544911 173.37339385 103.14485777 169.12573242 95.53540039 C166.61039091 91.04426548 164.00563769 86.6118749 161.375 82.1875 C156.59066628 74.13153332 152.05113621 65.94334011 147.5289917 57.73815918 C143.08394678 49.67348531 138.55597351 41.67640144 133.70507812 33.84765625 C132.74508182 32.26571361 131.86272554 30.63702171 131 29 C131.33 28.34 131.66 27.68 132 27 C134.76202709 31.24846152 137.13829318 35.27412885 139 40 C139.66 40.33 140.32 40.66 141 41 C141.8726892 42.40177604 142.6709775 43.84996598 143.4375 45.3125 C143.96988281 46.31152344 144.50226563 47.31054688 145.05078125 48.33984375 C145.35580566 48.91460449 145.66083008 49.48936523 145.97509766 50.08154297 C151.976234 61.31473244 158.20260917 72.43086494 164.5 83.5 C165.00418457 84.38993652 165.50836914 85.27987305 166.02783203 86.19677734 C166.50333496 87.02902832 166.97883789 87.8612793 167.46875 88.71875 C167.88576172 89.45029297 168.30277344 90.18183594 168.73242188 90.93554688 C169.9726187 93.03384233 169.9726187 93.03384233 171.51611328 94.98413086 C173.0687345 97.09337624 174.15143486 99.17102378 175.2734375 101.53515625 C178.11677004 107.3375507 181.34020245 112.87616409 184.625 118.4375 C185.85951036 120.54288939 187.09388342 122.64835928 188.328125 124.75390625 C190.12495466 127.81144526 191.92263807 130.86848033 193.72070312 133.92529297 C195.27601868 136.57294426 196.82599657 139.22365254 198.375 141.875 C198.84502441 142.67091553 199.31504883 143.46683105 199.79931641 144.28686523 C203 149.77297053 203 149.77297053 203 152 C203.66 152.33 204.32 152.66 205 153 C206.25113072 155.19022884 207.42021209 157.37885317 208.5625 159.625 C211.26294967 164.81306208 214.06833092 169.88872937 217.125 174.875 C221.15046022 181.4689773 224.93250313 188.18635221 228.6875 194.9375 C233.36715032 203.34721475 238.12567285 211.70159833 243 220 C247.78887434 228.15393882 252.46675557 236.36069477 257.0625 244.625 C262.12116501 253.72050668 267.31344429 262.72371764 272.65063477 271.65869141 C275.86997024 277.05184633 278.98466455 282.49004633 282 288 C282.66 287.67 283.32 287.34 284 287 C284.144375 287.928125 284.28875 288.85625 284.4375 289.8125 C284.92100111 293.00725111 284.92100111 293.00725111 286 296 C286.99 296.33 287.98 296.66 289 297 C289 297.99 289 298.98 289 300 C289.92987435 301.90810797 290.94069213 303.77721202 291.9921875 305.62109375 C292.61480469 306.72130859 293.23742187 307.82152344 293.87890625 308.95507812 C294.54403216 310.11602219 295.20939916 311.27682816 295.875 312.4375 C297.16472715 314.70665361 298.45381645 316.97616991 299.7421875 319.24609375 C300.3182373 320.25341553 300.89428711 321.2607373 301.48779297 322.29858398 C302.72448146 324.50781197 303.89461564 326.72315221 305 329 C302.55483031 330.22258485 300.97942743 330.12690818 298.24560547 330.12939453 C296.74207771 330.13388107 296.74207771 330.13388107 295.20817566 330.13845825 C294.10564957 330.13659515 293.00312347 330.13473206 291.8671875 330.1328125 C290.13369804 330.13642288 290.13369804 330.13642288 288.3651886 330.1401062 C281.88028891 330.1479022 275.3960434 330.11822884 268.91137695 330.06640625 C266.87291712 330.05119732 264.83445518 330.03647244 262.79598808 330.0222702 C261.41254732 330.01258674 260.02911031 330.00235322 258.64567757 329.99158478 C249.74640987 329.92804271 240.89265992 330.06822636 232.00024414 330.45626831 C226.93898235 330.66580315 221.87766701 330.78349902 216.81329346 330.88909912 C214.41587659 330.96242807 212.01934424 331.07817869 209.62615967 331.23834229 C194.51724301 332.22602155 194.51724301 332.22602155 188 329 C181.98112034 323.1705529 178.62734774 315.48711197 175.30130005 307.91534424 C173.66626862 304.25233088 171.74860785 300.88712782 169.7109375 297.43359375 C168.59663612 295.43618957 167.48450853 293.43757046 166.375 291.4375 C164.72065139 288.4667679 163.06569246 285.49638136 161.40917969 282.52685547 C160.53225013 280.95439862 159.65750202 279.38072067 158.78613281 277.80517578 C157.3536021 275.24312431 156.08707127 273.08707127 154 271 C152.93817312 269.04252074 151.92274623 267.05962074 150.9375 265.0625 C150.41027344 264.00160156 149.88304687 262.94070313 149.33984375 261.84765625 C148 259 148 259 147 256 C146.34 255.67 145.68 255.34 145 255 C144.04130663 253.43226738 143.15149514 251.82212009 142.296875 250.1953125 C141.76513672 249.19661133 141.23339844 248.19791016 140.68554688 247.16894531 C140.12931641 246.12319336 139.57308594 245.07744141 139 244 C137.9063069 242.01531855 136.80732884 240.03354043 135.703125 238.0546875 C135.14222168 237.04946045 134.58131836 236.0442334 134.00341797 235.00854492 C126.76890682 222.0797019 119.40303646 209.25258752 111.71875 196.5859375 C111.1633252 195.6678833 110.60790039 194.7498291 110.03564453 193.80395508 C108.9471038 192.00695069 107.85447075 190.21241745 106.75732422 188.4206543 C106.2676416 187.61281494 105.77795898 186.80497559 105.2734375 185.97265625 C104.83435059 185.25343994 104.39526367 184.53422363 103.94287109 183.79321289 C103 182 103 182 103 180 C102.34 179.67 101.68 179.34 101 179 C100.02617353 177.4019493 99.12025557 175.76220025 98.25 174.10546875 C97.71761719 173.10563965 97.18523437 172.10581055 96.63671875 171.07568359 C96.09660156 170.06070801 95.55648437 169.04573242 95 168 C93.02065929 164.42582771 91.01077936 160.869066 89 157.3125 C88.443125 156.32701172 87.88625 155.34152344 87.3125 154.32617188 C82.69015671 146.17000587 77.97216555 138.07197588 73.23242188 129.98364258 C68.71298264 122.25792897 64.29800969 114.47739424 59.91210938 106.67529297 C55.27892655 98.45125203 50.53495965 90.29428738 45.75585938 82.15429688 C45.20736328 81.21908203 44.65886719 80.28386719 44.09375 79.3203125 C43.56910156 78.42731445 43.04445313 77.53431641 42.50390625 76.61425781 C40.64106712 73.37606277 38.88350368 70.08627641 37.15820312 66.77294922 C35.96502582 64.69269393 35.96502582 64.69269393 33 63 C33 62.01 33 61.02 33 60 C32.08661059 57.98635445 32.08661059 57.98635445 30.796875 55.8515625 C30.31677979 55.02108398 29.83668457 54.19060547 29.34204102 53.33496094 C28.81666748 52.44067383 28.29129395 51.54638672 27.75 50.625 C26.64957613 48.72665724 25.54932066 46.82821686 24.44921875 44.9296875 C23.87993652 43.95225586 23.3106543 42.97482422 22.72412109 41.96777344 C19.97901016 37.24254425 17.27136212 32.49607017 14.5625 27.75 C14.07942383 26.90646973 13.59634766 26.06293945 13.09863281 25.19384766 C12.63424805 24.38222168 12.16986328 23.5705957 11.69140625 22.734375 C11.24297363 21.95384766 10.79454102 21.17332031 10.33251953 20.36914062 C9.41357918 18.73531923 8.52010419 17.08700211 7.64794922 15.42773438 C7.21627441 14.61111328 6.78459961 13.79449219 6.33984375 12.953125 C5.96077881 12.21739258 5.58171387 11.48166016 5.19116211 10.72363281 C4.03163794 8.67684264 4.03163794 8.67684264 1 8 C0.67 5.36 0.34 2.72 0 0 Z " fill="#07488B" transform="translate(515,416)"/>
<path d="M0 0 C2.94850541 3.54343666 5.45497056 7.16435054 7.8125 11.125 C8.75029297 12.67574219 8.75029297 12.67574219 9.70703125 14.2578125 C11 17 11 17 10 20 C9.37351562 18.92878906 8.74703125 17.85757813 8.1015625 16.75390625 C7.27631376 15.3566101 6.45077804 13.95948341 5.625 12.5625 C5.2125 11.85544922 4.8 11.14839844 4.375 10.41992188 C3.97539063 9.74638672 3.57578125 9.07285156 3.1640625 8.37890625 C2.61419678 7.44413452 2.61419678 7.44413452 2.05322266 6.49047852 C1.05699247 4.83167299 1.05699247 4.83167299 -1 4 C-1.28125732 4.73234863 -1.56251465 5.46469727 -1.85229492 6.21923828 C-2.89671049 8.74974101 -4.05135655 11.0923693 -5.36328125 13.4921875 C-5.83137207 14.35046143 -6.29946289 15.20873535 -6.78173828 16.09301758 C-7.28688965 17.01107178 -7.79204102 17.92912598 -8.3125 18.875 C-8.84085449 19.83881592 -9.36920898 20.80263184 -9.91357422 21.7956543 C-17.84685656 36.22648382 -25.92983781 50.56849293 -34.33691406 64.72875977 C-37.45720838 70.01172781 -40.43366422 75.36563882 -43.375 80.75 C-51.89033676 96.33620122 -60.80058184 111.68984077 -69.76635742 127.02026367 C-75.12878206 136.19755758 -80.41137205 145.41937773 -85.66650391 154.65844727 C-87.44092535 157.77424295 -89.22102853 160.88679992 -91 164 C-30.94 164 29.12 164 91 164 C83.3965065 150.42233304 75.79420517 136.86598353 68.05859375 123.3671875 C64.08770024 116.41780081 60.18830527 109.42851985 56.28344727 102.44189453 C50.75916612 92.56001667 45.19064599 82.70354986 39.61328125 72.8515625 C37.97995246 69.96456488 36.34899171 67.07624185 34.71875 64.1875 C33.90434448 62.74491821 33.90434448 62.74491821 33.07348633 61.27319336 C31.99215601 59.35758789 30.91125639 57.44173923 29.83081055 55.52563477 C27.09420135 50.67906021 24.33853664 45.84470473 21.55078125 41.02734375 C20.99656494 40.06715332 20.44234863 39.10696289 19.87133789 38.11767578 C18.8161316 36.29199889 17.75692762 34.46862482 16.69311523 32.64794922 C16.22204346 31.83213379 15.75097168 31.01631836 15.265625 30.17578125 C14.85086914 29.46333252 14.43611328 28.75088379 14.00878906 28.0168457 C13.00764014 26.01527474 12.45042732 24.18555438 12 22 C15.31296225 25.01949476 17.34246434 28.06132919 19.46875 31.99609375 C19.94395332 32.86741188 19.94395332 32.86741188 20.42875671 33.7563324 C21.10649222 35.00053895 21.7811477 36.24642737 22.45297241 37.49383545 C24.23204968 40.79645082 26.03398607 44.08659209 27.83203125 47.37890625 C28.1901741 48.03628784 28.54831696 48.69366943 28.91731262 49.37097168 C31.93932746 54.9117289 35.03992341 60.40455571 38.1875 65.875 C39.14068251 67.53382112 40.09380736 69.19267537 41.046875 70.8515625 C41.52189453 71.67817383 41.99691406 72.50478516 42.48632812 73.35644531 C45.322692 78.31001758 48.12962881 83.28023903 50.9375 88.25 C51.73546997 89.66128174 51.73546997 89.66128174 52.54956055 91.10107422 C53.31200073 92.45096436 53.31200073 92.45096436 54.08984375 93.828125 C54.5782373 94.69244141 55.06663086 95.55675781 55.56982422 96.44726562 C56.52901939 98.15934223 57.478478 99.87690769 58.41845703 101.59960938 C59.07950439 102.81100586 59.07950439 102.81100586 59.75390625 104.046875 C60.14006104 104.76198242 60.52621582 105.47708984 60.92407227 106.21386719 C61.99750299 108.1580633 61.99750299 108.1580633 64 110 C64.97329389 111.87770852 65.90275719 113.77819167 66.8125 115.6875 C74.05616258 130.53472166 82.55757294 144.82055652 91.10473633 158.94848633 C94 163.78565814 94 163.78565814 94 166 C74.44884274 167.14289304 54.92532207 167.13328975 35.34963918 167.10139394 C30.78667814 167.0950526 26.22371611 167.09454822 21.66075134 167.09336853 C13.05897262 167.09028648 4.45720692 167.08211619 -4.14456612 167.07201904 C-13.95385906 167.06075959 -23.7631527 167.05532292 -33.57245052 167.05032361 C-53.71497423 167.03993019 -73.85748629 167.02239269 -94 167 C-93.28197558 162.99722407 -92.17238929 160.19348046 -90.0859375 156.68359375 C-89.48910156 155.67103516 -88.89226562 154.65847656 -88.27734375 153.61523438 C-87.64957031 152.56658203 -87.02179688 151.51792969 -86.375 150.4375 C-85.77042969 149.41591797 -85.16585938 148.39433594 -84.54296875 147.34179688 C-82.02984786 143.09521201 -79.50993128 138.85279912 -76.97753906 134.61767578 C-76.3378418 133.53856934 -75.69814453 132.45946289 -75.0390625 131.34765625 C-74.45592285 130.36933838 -73.8727832 129.39102051 -73.27197266 128.38305664 C-71.84304032 126.15614617 -71.84304032 126.15614617 -72 124 C-71.35502563 123.36457275 -71.35502563 123.36457275 -70.69702148 122.71630859 C-68.54443539 120.53925778 -67.31558248 118.22618118 -65.84765625 115.5390625 C-65.24252197 114.43892822 -64.6373877 113.33879395 -64.01391602 112.20532227 C-63.53717941 111.33050705 -63.53717941 111.33050705 -63.05081177 110.4380188 C-61.36744786 107.34995437 -59.66667977 104.27147776 -57.96875 101.19140625 C-57.62820084 100.57251022 -57.28765167 99.9536142 -56.93678284 99.31596375 C-54.02874536 94.0356938 -51.06300635 88.79064713 -48.0625 83.5625 C-47.59158936 82.74112549 -47.12067871 81.91975098 -46.63549805 81.07348633 C-45.64078403 79.33972842 -44.6455697 77.60625747 -43.64990234 75.87304688 C-40.38597141 70.18942166 -37.12925466 64.50166965 -33.875 58.8125 C-33.53065918 58.21055817 -33.18631836 57.60861633 -32.83154297 56.98843384 C-27.52362149 47.70567699 -22.29117929 38.38393728 -17.11914062 29.02490234 C-11.67114304 19.1676397 -6.20055586 9.41048993 0 0 Z " fill="#053D83" transform="translate(512,579)"/>
<path d="M0 0 C0.495 1.485 0.495 1.485 1 3 C-0.22131935 5.42077364 -1.50430977 7.64455909 -2.9375 9.9375 C-3.87195801 11.47785454 -4.80408281 13.01962596 -5.734375 14.5625 C-6.25451172 15.42230469 -6.77464844 16.28210938 -7.31054688 17.16796875 C-10.16640685 21.95524848 -12.91519263 26.80340319 -15.67050171 31.64904785 C-17.39349921 34.67904171 -19.12039837 37.70680828 -20.84765625 40.734375 C-21.19387527 41.34134216 -21.5400943 41.94830933 -21.89680481 42.57366943 C-25.44738295 48.79302615 -29.03669195 54.98985467 -32.625 61.1875 C-37.59310472 69.77304267 -42.48280671 78.39837075 -47.3125 87.0625 C-51.49557056 94.5654038 -55.72782007 102.02863201 -60.11157227 109.41601562 C-63.87799523 115.76744683 -67.56598198 122.16298154 -71.25 128.5625 C-76.33316447 137.38731273 -81.43269569 146.20220625 -86.5625 155 C-87.12163086 155.9597876 -87.68076172 156.9195752 -88.25683594 157.90844727 C-90.88347172 162.40859705 -93.53153444 166.89354581 -96.22265625 171.35546875 C-98.19516698 174.63296076 -100.09109475 177.92751209 -101.875 181.3125 C-104.12906466 185.51217837 -106.57354255 189.53686714 -109.125 193.5625 C-112.00717039 198.17946247 -114.31151924 202.64842554 -116.11328125 207.78125 C-117 210 -117 210 -120 215 C-65.55 215.495 -65.55 215.495 -10 216 C-10 215.34 -10 214.68 -10 214 C-9.34 214 -8.68 214 -8 214 C-7.62875 212.63875 -7.62875 212.63875 -7.25 211.25 C-5.90307755 207.74800163 -4.6092825 206.6092825 -2 204 C1.03735939 199.24785513 3.46381419 194.44647697 5 189 C5.66 189 6.32 189 7 189 C7.25007812 188.48308594 7.50015625 187.96617187 7.7578125 187.43359375 C10.51832034 182.02542902 13.59724679 176.77877465 16.58935547 171.49609375 C18.12915933 168.77145639 19.66003145 166.04188286 21.19140625 163.3125 C22.27310665 161.39564659 23.35513433 159.47897783 24.4375 157.5625 C24.95747559 156.63252197 25.47745117 155.70254395 26.01318359 154.74438477 C26.50254395 153.88127686 26.9919043 153.01816895 27.49609375 152.12890625 C27.93107178 151.35619385 28.3660498 150.58348145 28.81420898 149.78735352 C30 148 30 148 32 147 C30.70159958 151.27029472 29.06415785 154.9361404 26.83203125 158.796875 C25.87369385 160.46387451 25.87369385 160.46387451 24.89599609 162.16455078 C24.2016225 163.35977321 23.50712073 164.55492118 22.8125 165.75 C22.09668673 166.99044507 21.3813618 168.23117207 20.66650391 169.47216797 C19.18799673 172.03686727 17.70636267 174.59972085 16.22216797 177.16113281 C14.07905652 180.86073376 11.9465228 184.56634351 9.81640625 188.2734375 C-6.30030652 216.30030652 -6.30030652 216.30030652 -8 218 C-9.5181852 218.09578593 -11.04082396 218.12188147 -12.56202698 218.12025452 C-14.04077301 218.12231651 -14.04077301 218.12231651 -15.5493927 218.12442017 C-16.63983383 218.12082489 -17.73027496 218.11722961 -18.85375977 218.11352539 C-20.56573044 218.11374443 -20.56573044 218.11374443 -22.31228638 218.1139679 C-26.10534531 218.11326818 -29.89835584 218.10547307 -33.69140625 218.09765625 C-36.31314568 218.09579228 -38.93488546 218.09436828 -41.55662537 218.09336853 C-47.76501955 218.09025551 -53.97339621 218.08204252 -60.18178266 218.07201904 C-67.24817441 218.06085699 -74.31456699 218.05534722 -81.38096535 218.05032361 C-95.92065263 218.03985988 -110.46032607 218.022261 -125 218 C-124.21459321 216.41537277 -123.42757535 214.831544 -122.63989258 213.24804688 C-122.20179764 212.36596558 -121.7637027 211.48388428 -121.31233215 210.57507324 C-119.23904753 206.50685032 -116.9263575 202.59071105 -114.59960938 198.6640625 C-112.63353608 195.54161145 -112.63353608 195.54161145 -112 192 C-111.35502563 191.35780518 -111.35502563 191.35780518 -110.69702148 190.70263672 C-108.59032321 188.58896764 -107.32697166 186.35022554 -105.84765625 183.7578125 C-105.24187744 182.70166748 -104.63609863 181.64552246 -104.01196289 180.55737305 C-103.04697876 178.85834839 -103.04697876 178.85834839 -102.0625 177.125 C-101.39034744 175.95001637 -100.71773519 174.7752956 -100.04467773 173.60083008 C-98.02354281 170.0707551 -96.0110221 166.53584649 -94 163 C-91.85492975 159.22873135 -89.70961678 155.45760396 -87.5625 151.6875 C-87.07386475 150.82866211 -86.58522949 149.96982422 -86.08178711 149.08496094 C-82.81627585 143.36710929 -79.44337661 137.7395659 -75.9140625 132.1796875 C-73.68687926 128.47983616 -71.63606344 124.70106046 -69.57958984 120.90429688 C-67.1008008 116.34669649 -64.55326874 111.82868633 -62 107.3125 C-61.4423999 106.32556152 -60.8847998 105.33862305 -60.31030273 104.32177734 C-55.71785264 96.21730304 -51.0242059 88.17460119 -46.31152344 80.13964844 C-41.42065838 71.77662183 -36.68449933 63.33219383 -31.97119141 54.86816406 C-28.32359363 48.32941595 -24.59874829 41.84714372 -20.77001953 35.41308594 C-16.5459067 28.29129768 -12.50177108 21.06839152 -8.46459961 13.83935547 C-5.80404876 9.09643799 -3.10669116 4.46493053 0 0 Z " fill="#0A4A8A" transform="translate(328,527)"/>
<path d="M0 0 C2.94850541 3.54343666 5.45497056 7.16435054 7.8125 11.125 C8.75029297 12.67574219 8.75029297 12.67574219 9.70703125 14.2578125 C11 17 11 17 10 20 C9.37351562 18.92878906 8.74703125 17.85757813 8.1015625 16.75390625 C7.27631376 15.3566101 6.45077804 13.95948341 5.625 12.5625 C5.2125 11.85544922 4.8 11.14839844 4.375 10.41992188 C3.97539063 9.74638672 3.57578125 9.07285156 3.1640625 8.37890625 C2.61419678 7.44413452 2.61419678 7.44413452 2.05322266 6.49047852 C1.05699247 4.83167299 1.05699247 4.83167299 -1 4 C-1.28125732 4.73234863 -1.56251465 5.46469727 -1.85229492 6.21923828 C-2.89671049 8.74974101 -4.05135655 11.0923693 -5.36328125 13.4921875 C-5.83137207 14.35046143 -6.29946289 15.20873535 -6.78173828 16.09301758 C-7.28688965 17.01107178 -7.79204102 17.92912598 -8.3125 18.875 C-8.84085449 19.83881592 -9.36920898 20.80263184 -9.91357422 21.7956543 C-17.84685656 36.22648382 -25.92983781 50.56849293 -34.33691406 64.72875977 C-37.45720838 70.01172781 -40.43366422 75.36563882 -43.375 80.75 C-51.99279652 96.52374029 -60.99593409 112.07277666 -70.10473633 127.56738281 C-73.86307678 133.97883118 -77.47848997 140.45550216 -81 147 C-81.66 146.34 -82.32 145.68 -83 145 C-82.50016602 144.15236084 -82.50016602 144.15236084 -81.99023438 143.28759766 C-80.48899331 140.73601276 -78.9944274 138.180581 -77.5 135.625 C-76.97535156 134.73554687 -76.45070313 133.84609375 -75.91015625 132.9296875 C-75.41386719 132.07890625 -74.91757812 131.228125 -74.40625 130.3515625 C-73.94541016 129.56604004 -73.48457031 128.78051758 -73.00976562 127.97119141 C-71.84802576 126.07245581 -71.84802576 126.07245581 -72 124 C-71.57001709 123.57638184 -71.14003418 123.15276367 -70.69702148 122.71630859 C-68.54443539 120.53925778 -67.31558248 118.22618118 -65.84765625 115.5390625 C-65.24252197 114.43892822 -64.6373877 113.33879395 -64.01391602 112.20532227 C-63.53717941 111.33050705 -63.53717941 111.33050705 -63.05081177 110.4380188 C-61.36744786 107.34995437 -59.66667977 104.27147776 -57.96875 101.19140625 C-57.62820084 100.57251022 -57.28765167 99.9536142 -56.93678284 99.31596375 C-54.02874536 94.0356938 -51.06300635 88.79064713 -48.0625 83.5625 C-47.59158936 82.74112549 -47.12067871 81.91975098 -46.63549805 81.07348633 C-45.64078403 79.33972842 -44.6455697 77.60625747 -43.64990234 75.87304688 C-40.38597141 70.18942166 -37.12925466 64.50166965 -33.875 58.8125 C-33.53065918 58.21055817 -33.18631836 57.60861633 -32.83154297 56.98843384 C-27.52362149 47.70567699 -22.29117929 38.38393728 -17.11914062 29.02490234 C-11.67114304 19.1676397 -6.20055586 9.41048993 0 0 Z " fill="#0A4385" transform="translate(512,579)"/>
<path d="M0 0 C0.33 0.66 0.66 1.32 1 2 C-0.08886719 4.40405273 -0.08886719 4.40405273 -1.796875 7.43359375 C-2.42029785 8.54774658 -3.0437207 9.66189941 -3.68603516 10.80981445 C-4.37373441 12.01920736 -5.06172949 13.2284321 -5.75 14.4375 C-6.44765513 15.67571438 -7.14475463 16.91424199 -7.84130859 18.15307617 C-9.88217174 21.77563936 -11.93921595 25.38873111 -14 29 C-14.78455566 30.37623535 -14.78455566 30.37623535 -15.58496094 31.78027344 C-18.68745648 37.20802588 -21.83364346 42.60929933 -25 48 C-25.56589844 48.96502441 -26.13179687 49.93004883 -26.71484375 50.92431641 C-28.51555784 53.9927913 -30.31947056 57.05935633 -32.125 60.125 C-32.69428223 61.09284424 -33.26356445 62.06068848 -33.85009766 63.05786133 C-34.37651855 63.94884521 -34.90293945 64.8398291 -35.4453125 65.7578125 C-35.91469238 66.5533252 -36.38407227 67.34883789 -36.86767578 68.16845703 C-38 70 -38 70 -39 71 C-40.5181852 71.09578593 -42.04082396 71.12188147 -43.56202698 71.12025452 C-45.04077301 71.12231651 -45.04077301 71.12231651 -46.5493927 71.12442017 C-47.63983383 71.12082489 -48.73027496 71.11722961 -49.85375977 71.11352539 C-51.56573044 71.11374443 -51.56573044 71.11374443 -53.31228638 71.1139679 C-57.10534531 71.11326818 -60.89835584 71.10547307 -64.69140625 71.09765625 C-67.31314568 71.09579228 -69.93488546 71.09436828 -72.55662537 71.09336853 C-78.76501955 71.09025551 -84.97339621 71.08204252 -91.18178266 71.07201904 C-98.24817441 71.06085699 -105.31456699 71.05534722 -112.38096535 71.05032361 C-126.92065263 71.03985988 -141.46032607 71.022261 -156 71 C-155.34 70.01 -154.68 69.02 -154 68 C-154 68.66 -154 69.32 -154 70 C-139.34418029 70.36111554 -124.69052175 70.60019161 -110.03048325 70.69690418 C-103.22180655 70.74461888 -96.41789037 70.83113603 -89.61132812 71.01147461 C-83.03599828 71.18557473 -76.46493833 71.24828123 -69.8872757 71.24460411 C-67.3846953 71.2611165 -64.88206746 71.31429956 -62.38109589 71.40552711 C-49.18881694 72.28860823 -49.18881694 72.28860823 -37.75691223 66.92614365 C-32.03862306 59.53835258 -28.7357135 50.86007358 -26 42 C-25.34 42 -24.68 42 -24 42 C-23.74992188 41.48308594 -23.49984375 40.96617187 -23.2421875 40.43359375 C-21.62271041 37.26084462 -19.87615304 34.16369321 -18.125 31.0625 C-17.74150391 30.38243896 -17.35800781 29.70237793 -16.96289062 29.00170898 C-13.48777842 22.84820758 -9.99749427 16.70330292 -6.5 10.5625 C-5.70746826 9.16753296 -5.70746826 9.16753296 -4.89892578 7.74438477 C-4.40634277 6.88127686 -3.91375977 6.01816895 -3.40625 5.12890625 C-2.96603516 4.35619385 -2.52582031 3.58348145 -2.07226562 2.78735352 C-1 1 -1 1 0 0 Z " fill="#063674" transform="translate(359,674)"/>
<path d="M0 0 C0.495 0.99 0.495 0.99 1 2 C-0.29296875 4.57421875 -0.29296875 4.57421875 -2.1875 7.6875 C-2.79980469 8.70199219 -3.41210938 9.71648437 -4.04296875 10.76171875 C-4.68878906 11.83035156 -5.33460938 12.89898437 -6 14 C-6.99923094 15.73881919 -7.99834916 17.47772156 -8.98901367 19.22143555 C-9.99797614 20.99643955 -11.01541888 22.76632387 -12.03515625 24.53515625 C-12.53692383 25.40817383 -12.53692383 25.40817383 -13.04882812 26.29882812 C-13.72726735 27.47923395 -14.40696535 28.65891715 -15.08789062 29.83789062 C-16.65062595 32.56134233 -18.14451702 35.29160159 -19.5390625 38.10546875 C-20.97697185 40.95437471 -22.5719011 43.57708031 -24.3125 46.25 C-29.53100446 54.3737643 -34.2928924 62.49153114 -38.5546875 71.16015625 C-41.15401493 76.2674834 -43.82014041 81.0369631 -48 85 C-47 76.42857143 -47 76.42857143 -46 73 C-45.01 73 -44.02 73 -43 73 C-42.73823975 72.29762207 -42.47647949 71.59524414 -42.20678711 70.87158203 C-40.90628501 67.77700269 -39.36446579 64.96477357 -37.69140625 62.0546875 C-37.3689946 61.49186066 -37.04658295 60.92903381 -36.71440125 60.34915161 C-35.66696278 58.52257786 -34.61486725 56.69873778 -33.5625 54.875 C-32.83212517 53.60429976 -32.10198375 52.33346533 -31.37207031 51.0625 C-29.57433158 47.93408432 -27.7726474 44.80796166 -25.9697876 41.68249512 C-24.6162739 39.3342694 -23.26725211 36.98347086 -21.91796875 34.6328125 C-19.29820046 30.07701952 -16.65769397 25.5337685 -14 21 C-13.47325684 20.10120117 -12.94651367 19.20240234 -12.40380859 18.27636719 C-10.75522171 15.47179715 -9.09793482 12.67256904 -7.4375 9.875 C-6.92413086 9.00230469 -6.41076172 8.12960938 -5.88183594 7.23046875 C-5.40391602 6.42996094 -4.92599609 5.62945312 -4.43359375 4.8046875 C-4.01134521 4.09296387 -3.58909668 3.38124023 -3.15405273 2.64794922 C-2 1 -2 1 0 0 Z " fill="#089FE3" transform="translate(495,239)"/>
<path d="M0 0 C2.18277725 2.04271016 3.73383316 4.00878626 5.20703125 6.60546875 C5.82928589 7.69214844 5.82928589 7.69214844 6.46411133 8.80078125 C6.90907959 9.58839844 7.35404785 10.37601562 7.8125 11.1875 C8.79105179 12.90009106 9.77025069 14.61231249 10.75 16.32421875 C11.27207031 17.23864746 11.79414062 18.15307617 12.33203125 19.09521484 C15.86189965 25.24251787 19.46200001 31.3493452 23.05200195 37.46166992 C26.82517058 43.91052697 30.44754866 50.4273784 34 57 C39.21348772 66.55224924 44.52870159 75.98182298 50.3046875 85.20703125 C52.43435012 88.71557681 54.25326847 92.2881955 56 96 C55.01 96.495 55.01 96.495 54 97 C53.3709375 95.86304688 52.741875 94.72609375 52.09375 93.5546875 C49.85172027 89.50627267 47.60095897 85.46277563 45.34716797 81.42089844 C44.11283355 79.20276504 42.88604041 76.98062191 41.66015625 74.7578125 C40.96141083 73.50494423 40.26221987 72.2523243 39.5625 71 C38.94503906 69.88625 38.32757812 68.7725 37.69140625 67.625 C36.10755899 64.7835539 36.10755899 64.7835539 33 63 C33 62.01 33 61.02 33 60 C32.08661059 57.98635445 32.08661059 57.98635445 30.796875 55.8515625 C30.31677979 55.02108398 29.83668457 54.19060547 29.34204102 53.33496094 C28.81666748 52.44067383 28.29129395 51.54638672 27.75 50.625 C26.64957613 48.72665724 25.54932066 46.82821686 24.44921875 44.9296875 C23.87993652 43.95225586 23.3106543 42.97482422 22.72412109 41.96777344 C19.97901016 37.24254425 17.27136212 32.49607017 14.5625 27.75 C14.07942383 26.90646973 13.59634766 26.06293945 13.09863281 25.19384766 C12.63424805 24.38222168 12.16986328 23.5705957 11.69140625 22.734375 C11.24297363 21.95384766 10.79454102 21.17332031 10.33251953 20.36914062 C9.41357918 18.73531923 8.52010419 17.08700211 7.64794922 15.42773438 C7.21627441 14.61111328 6.78459961 13.79449219 6.33984375 12.953125 C5.96077881 12.21739258 5.58171387 11.48166016 5.19116211 10.72363281 C4.03163794 8.67684264 4.03163794 8.67684264 1 8 C0.67 5.36 0.34 2.72 0 0 Z " fill="#0B5A9E" transform="translate(515,416)"/>
<path d="M0 0 C2.98885268 2.77737346 5.01050908 5.43928991 6.9609375 9.015625 C7.50741943 10.0068335 8.05390137 10.99804199 8.61694336 12.01928711 C9.19710205 13.08542236 9.77726074 14.15155762 10.375 15.25 C11.63231524 17.52833766 12.89147654 19.80565738 14.15234375 22.08203125 C14.47278152 22.66155045 14.7932193 23.24106964 15.12336731 23.83815002 C18.30974062 29.58813945 21.61059683 35.268021 24.9375 40.9375 C30.03168062 49.62787094 35.09449838 58.33517184 40.125 67.0625 C41.06653931 68.69529907 41.06653931 68.69529907 42.02709961 70.36108398 C45.02808473 75.56837538 48.02292085 80.77900299 51 86 C50.01 86 49.02 86 48 86 C48 85.34 48 84.68 48 84 C47.01 83.505 47.01 83.505 46 83 C45.02617353 81.4019493 44.12025557 79.76220025 43.25 78.10546875 C42.71761719 77.10563965 42.18523438 76.10581055 41.63671875 75.07568359 C41.09660156 74.06070801 40.55648437 73.04573242 40 72 C38.02065929 68.42582771 36.01077936 64.869066 34 61.3125 C33.443125 60.32701172 32.88625 59.34152344 32.3125 58.32617188 C28.26479929 51.18396784 24.14873535 44.083899 20 37 C15.16292714 28.73400412 10.36203467 20.44879603 5.625 12.125 C4.77615234 10.64386719 4.77615234 10.64386719 3.91015625 9.1328125 C3.39582031 8.2253125 2.88148438 7.3178125 2.3515625 6.3828125 C1.89604004 5.58246582 1.44051758 4.78211914 0.97119141 3.95751953 C0 2 0 2 0 0 Z " fill="#0A4D8F" transform="translate(570,512)"/>
<path d="M0 0 C0.33 0.99 0.66 1.98 1 3 C-0.98 5.97 -0.98 5.97 -3 9 C51.45 9.495 51.45 9.495 107 10 C107 9.34 107 8.68 107 8 C107.66 8 108.32 8 109 8 C109.28875 7.030625 109.5775 6.06125 109.875 5.0625 C111 2 111 2 113 1 C111.84860551 4.89702751 110.80628255 8.01719701 108 11 C105.85047626 11.49219131 105.85047626 11.49219131 103.31135559 11.48101807 C101.86634926 11.48926605 101.86634926 11.48926605 100.39215088 11.49768066 C99.33695251 11.48329956 98.28175415 11.46891846 97.19458008 11.45410156 C96.08223495 11.45468567 94.96988983 11.45526978 93.82383728 11.45587158 C90.13875367 11.45307978 86.45447396 11.42193461 82.76953125 11.390625 C80.21791526 11.38316655 77.66629356 11.37747175 75.1146698 11.37347412 C69.07972717 11.35975016 63.04513083 11.32820938 57.01032704 11.28807616 C50.13981246 11.24337643 43.26928408 11.22137601 36.3986603 11.20129442 C22.26561313 11.1594769 8.13282241 11.08911372 -6 11 C-5.30443514 7.05184136 -4.30581673 4.32037609 -2 1 C-1.34 0.67 -0.68 0.34 0 0 Z " fill="#014496" transform="translate(211,733)"/>
<path d="M0 0 C2.94850541 3.54343666 5.45497056 7.16435054 7.8125 11.125 C8.43769531 12.15882813 9.06289063 13.19265625 9.70703125 14.2578125 C11 17 11 17 10 20 C9.37351562 18.92878906 8.74703125 17.85757813 8.1015625 16.75390625 C7.27631376 15.3566101 6.45077804 13.95948341 5.625 12.5625 C5.2125 11.85544922 4.8 11.14839844 4.375 10.41992188 C3.97539063 9.74638672 3.57578125 9.07285156 3.1640625 8.37890625 C2.61419678 7.44413452 2.61419678 7.44413452 2.05322266 6.49047852 C1.05699247 4.83167299 1.05699247 4.83167299 -1 4 C-1.28125732 4.73234863 -1.56251465 5.46469727 -1.85229492 6.21923828 C-2.89671049 8.74974101 -4.05135655 11.0923693 -5.36328125 13.4921875 C-5.83193604 14.35142822 -6.30059082 15.21066895 -6.78344727 16.09594727 C-7.28803467 17.01303467 -7.79262207 17.93012207 -8.3125 18.875 C-8.83577881 19.83011475 -9.35905762 20.78522949 -9.89819336 21.76928711 C-23.84468355 47.14888403 -23.84468355 47.14888403 -31 59 C-31.66 58.34 -32.32 57.68 -33 57 C-32.46596558 56.09797852 -32.46596558 56.09797852 -31.92114258 55.17773438 C-24.50286463 42.62135282 -17.25125709 30.00757683 -10.44067383 17.109375 C-7.27585374 11.16319361 -3.85322963 5.52620765 0 0 Z " fill="#0C4F94" transform="translate(512,579)"/>
<path d="M0 0 C1 2 1 2 0.30078125 4.6640625 C-1.15080796 8.38675676 -2.90411697 11.87280748 -4.8125 15.375 C-5.16852295 16.0340332 -5.5245459 16.69306641 -5.89135742 17.37207031 C-12.73145996 29.93938312 -12.73145996 29.93938312 -17 34 C-16 25.42857143 -16 25.42857143 -15 22 C-14.01 22 -13.02 22 -12 22 C-11.66355469 21.03513672 -11.66355469 21.03513672 -11.3203125 20.05078125 C-9.51647249 15.88273674 -7.2046875 12.0801011 -4.875 8.1875 C-4.40707031 7.39923828 -3.93914062 6.61097656 -3.45703125 5.79882812 C-2.30784603 3.86397546 -1.15542997 1.93112772 0 0 Z " fill="#0A90D5" transform="translate(464,290)"/>
<path d="M0 0 C2.33086669 2.16029482 3.91083866 4.30923651 5.48828125 7.0625 C5.94485107 7.85487061 6.4014209 8.64724121 6.87182617 9.46362305 C7.58495972 10.71912964 7.58495972 10.71912964 8.3125 12 C9.04400269 13.27580933 9.04400269 13.27580933 9.7902832 14.57739258 C13.27548635 20.67403391 16.69877033 26.8014886 20 33 C19.01 33.495 19.01 33.495 18 34 C17.59160889 33.2479126 17.18321777 32.4958252 16.76245117 31.72094727 C15.24354998 28.93439008 13.71634913 26.15260173 12.18334961 23.3737793 C11.52144988 22.16989743 10.86289562 20.96416992 10.20776367 19.7565918 C9.26581108 18.0217162 8.31081206 16.29394415 7.35546875 14.56640625 C6.78465576 13.52427979 6.21384277 12.48215332 5.62573242 11.40844727 C4.16457409 8.71630962 4.16457409 8.71630962 1 8 C0.67 5.36 0.34 2.72 0 0 Z " fill="#0C62A7" transform="translate(515,416)"/>
<path d="M0 0 C2.85406763 1.42703382 2.9176969 3.00775026 4 6 C4.27328125 6.66128906 4.5465625 7.32257813 4.828125 8.00390625 C5.25351562 9.05384766 5.25351562 9.05384766 5.6875 10.125 C5.95949219 10.78757813 6.23148438 11.45015625 6.51171875 12.1328125 C7 14 7 14 6 17 C2 10.25 2 10.25 2 8 C0.02 8.99 -1.96 9.98 -4 11 C-3.71758359 9.53984709 -3.42373386 8.08190207 -3.125 6.625 C-2.96257812 5.81289062 -2.80015625 5.00078125 -2.6328125 4.1640625 C-2 2 -2 2 0 0 Z " fill="#07ABE4" transform="translate(512,208)"/>
<path d="M0 0 C1 3 1 3 -0.36328125 5.77734375 C-1.00652344 6.82019531 -1.64976562 7.86304688 -2.3125 8.9375 C-4.33631721 12.25032047 -6.30139202 15.51000294 -8 19 C-8.84673832 20.54575905 -9.7011113 22.08735689 -10.5625 23.625 C-11.74472089 25.73686045 -12.91765001 27.83530002 -14 30 C-14.66 30 -15.32 30 -16 30 C-14.69728821 25.68930993 -13.0324417 22.03667415 -10.7421875 18.1640625 C-10.11699219 17.10058594 -9.49179687 16.03710938 -8.84765625 14.94140625 C-8.19667969 13.84699219 -7.54570312 12.75257813 -6.875 11.625 C-6.21628906 10.50738281 -5.55757813 9.38976562 -4.87890625 8.23828125 C-3.25763124 5.48916275 -1.63119987 2.74323718 0 0 Z " fill="#0593ED" transform="translate(389,423)"/>
<path d="M0 0 C5.74533736 2.16382835 7.58779922 7.71444242 10 13 C10.88796658 15.68484235 11.4743448 18.21402745 12 21 C8.46987911 18.64658607 7.78204832 16.92113417 6 13.125 C3.95873102 8.78165929 3.95873102 8.78165929 1.3125 4.8046875 C0 3 0 3 0 0 Z " fill="#08A8E8" transform="translate(531,245)"/>
<path d="M0 0 C0.33 0.66 0.66 1.32 1 2 C-0.29296875 4.57421875 -0.29296875 4.57421875 -2.1875 7.6875 C-2.83460938 8.76 -3.48171875 9.8325 -4.1484375 10.9375 C-4.75945312 11.948125 -5.37046875 12.95875 -6 14 C-6.77637029 15.39276125 -7.54854603 16.78788968 -8.3125 18.1875 C-10 21 -10 21 -12 22 C-11.70867187 21.27683594 -11.41734375 20.55367188 -11.1171875 19.80859375 C-10.42026161 18.05653182 -9.7357545 16.29941634 -9.0703125 14.53515625 C-4.34375 2.171875 -4.34375 2.171875 0 0 Z " fill="#08A9EA" transform="translate(495,239)"/>
<path d="M0 0 C1.65 1.32 3.3 2.64 5 4 C5.66 3.67 6.32 3.34 7 3 C8.33333333 8.33333333 9.66666667 13.66666667 11 19 C8.55452501 16.76779318 7.05251906 14.54094926 5.5 11.625 C4.11595624 9.05343833 2.72214083 6.54967652 1.1875 4.0625 C0 2 0 2 0 0 Z " fill="#07A9ED" transform="translate(544,268)"/>
<path d="M0 0 C1 3 1 3 -0.00390625 5.09375 C-0.77541016 6.28484375 -0.77541016 6.28484375 -1.5625 7.5 C-4.49517679 12.13772143 -7.0913467 16.87412694 -9.60546875 21.75 C-11 24 -11 24 -14 26 C-12.64329073 21.3494244 -10.7215315 17.64346366 -8.125 13.5625 C-5.30959313 9.0956508 -2.57359073 4.61101673 0 0 Z " fill="#0256B3" transform="translate(226,707)"/>
<path d="M0 0 C0.33 0.66 0.66 1.32 1 2 C-0.23828125 4.29296875 -0.23828125 4.29296875 -2 7 C-2.79470703 8.32451172 -2.79470703 8.32451172 -3.60546875 9.67578125 C-5.0703125 12.1171875 -6.53515625 14.55859375 -8 17 C-9.85228404 13.29543192 -8.04136984 8.86794512 -7 5 C-6.01 5 -5.02 5 -4 5 C-3.67 4.34 -3.34 3.68 -3 3 C-2.01979625 1.9805881 -1.02196992 0.97753644 0 0 Z " fill="#089DE6" transform="translate(456,307)"/>
<path d="M0 0 C1.921875 0.8046875 1.921875 0.8046875 4 2 C5.25 5.125 5.25 5.125 6 8 C4.35 6.68 2.7 5.36 1 4 C-1.31 7.3 -3.62 10.6 -6 14 C-6 10.27792613 -4.82035432 8.53604411 -3 5.3125 C-2.443125 4.31863281 -1.88625 3.32476563 -1.3125 2.30078125 C-0.879375 1.54152344 -0.44625 0.78226563 0 0 Z " fill="#036ECE" transform="translate(511,583)"/>
<path d="M0 0 C2.73785408 0.35100693 3.74881298 0.68006706 5.484375 2.890625 C5.90203125 3.66921875 6.3196875 4.4478125 6.75 5.25 C7.39195312 6.40242188 7.39195312 6.40242188 8.046875 7.578125 C9.09006898 10.22886381 9.18016322 12.1774429 9 15 C5.96343083 12.4011345 4.53836261 9.37928272 2.8125 5.8125 C2.28269531 4.72582031 1.75289062 3.63914062 1.20703125 2.51953125 C0.80871094 1.68808594 0.41039062 0.85664063 0 0 Z " fill="#089CE0" transform="translate(558,293)"/>
<path d="M0 0 C0.33 0.99 0.66 1.98 1 3 C-0.39949349 5.50973885 -1.82628407 7.82169398 -3.4375 10.1875 C-3.87126953 10.84169922 -4.30503906 11.49589844 -4.75195312 12.16992188 C-5.82545983 13.78608033 -6.9115597 15.39386099 -8 17 C-8.33 16.34 -8.66 15.68 -9 15 C-8.06706657 13.30072839 -7.12423748 11.60564234 -6.1171875 9.94921875 C-5.0263775 8.04602227 -4.18882275 6.15955688 -3.375 4.125 C-2 1 -2 1 0 0 Z " fill="#06B5F0" transform="translate(506,220)"/>
<path d="M0 0 C0.33 0.66 0.66 1.32 1 2 C0.02065076 3.67888441 -0.98343919 5.34338239 -2 7 C-2.33 8.0725 -2.66 9.145 -3 10.25 C-3.33 11.1575 -3.66 12.065 -4 13 C-4.99 13.33 -5.98 13.66 -7 14 C-5.53967505 8.68972746 -3.01679014 4.53669968 0 0 Z " fill="#0B91D3" transform="translate(486,252)"/>
<path d="M0 0 C0.66 0 1.32 0 2 0 C2.67305018 1.60149886 3.33822227 3.20631029 4 4.8125 C4.37125 5.70582031 4.7425 6.59914063 5.125 7.51953125 C6 10 6 10 6 13 C2.47612355 8.88881081 0 5.53491888 0 0 Z " fill="#074288" transform="translate(684,708)"/>
<path d="M0 0 C0.71484375 1.671875 0.71484375 1.671875 1 4 C-0.43359375 6.578125 -0.43359375 6.578125 -2.4375 9.25 C-3.09621094 10.14203125 -3.75492187 11.0340625 -4.43359375 11.953125 C-4.95050781 12.62859375 -5.46742188 13.3040625 -6 14 C-6.33 13.34 -6.66 12.68 -7 12 C-5.56640625 9.1796875 -5.56640625 9.1796875 -3.5625 5.875 C-2.57443359 4.23144531 -2.57443359 4.23144531 -1.56640625 2.5546875 C-1.04949219 1.71164062 -0.53257812 0.86859375 0 0 Z " fill="#04A4F6" transform="translate(439,336)"/>
<path d="M0 0 C1.01382963 3.6208201 1.49897691 7.27811418 2 11 C-1.44216672 8.3401439 -1.99504674 5.09711714 -3 1 C-2.01 0.67 -1.02 0.34 0 0 Z " fill="#064FA0" transform="translate(798,703)"/>
<path d="M0 0 C0.93065133 2.60582371 1.14917407 3.64198224 0.0625 6.25 C-0.4634375 7.11625 -0.4634375 7.11625 -1 8 C-1.66 8 -2.32 8 -3 8 C-2.67 6.02 -2.34 4.04 -2 2 C-1.34 2 -0.68 2 0 2 C0 1.34 0 0.68 0 0 Z " fill="#084187" transform="translate(335,714)"/>
<path d="M0 0 C3 1 3 1 4 3 C4.99 3.66 5.98 4.32 7 5 C6.01 6.485 6.01 6.485 5 8 C4.16382818 6.8562364 3.33113541 5.70992861 2.5 4.5625 C2.0359375 3.92441406 1.571875 3.28632813 1.09375 2.62890625 C0 1 0 1 0 0 Z " fill="#06B7F1" transform="translate(519,226)"/>
<path d="M0 0 C0 3 0 3 0 3 Z " fill="#0851A5" transform="translate(681,709)"/>
<path d="M0 0 C0.99 0.495 0.99 0.495 2 1 C1.67 1.66 1.34 2.32 1 3 C0.67 2.01 0.34 1.02 0 0 Z " fill="#0B64B9" transform="translate(517,583)"/>
<path d="M0 0 C0.99 0.495 0.99 0.495 2 1 C1.34 1.66 0.68 2.32 0 3 C0 2.01 0 1.02 0 0 Z " fill="#096EC6" transform="translate(576,528)"/>
<path d="M0 0 C0.33 0.66 0.66 1.32 1 2 C0.34 1.67 -0.32 1.34 -1 1 C-0.67 0.67 -0.34 0.34 0 0 Z " fill="#0852A4" transform="translate(676,701)"/>
<path d="M0 0 C0.66 0 1.32 0 2 0 C1.67 0.66 1.34 1.32 1 2 C0.67 1.34 0.34 0.68 0 0 Z " fill="#0761B8" transform="translate(539,624)"/>
<path d="M0 0 C0.66 0.66 1.32 1.32 2 2 C1.34 2 0.68 2 0 2 C0 1.34 0 0.68 0 0 Z " fill="#0A5FB8" transform="translate(624,610)"/>
<path d="" fill="#0A63B7" transform="translate(0,0)"/>
<path d="" fill="#096AB9" transform="translate(0,0)"/>
<path d="M0 0 C0.66 0.66 1.32 1.32 2 2 C1.34 2 0.68 2 0 2 C0 1.34 0 0.68 0 0 Z " fill="#086BC5" transform="translate(580,534)"/>
<path d="M0 0 C0.66 0 1.32 0 2 0 C1.67 0.66 1.34 1.32 1 2 C0.67 1.34 0.34 0.68 0 0 Z " fill="#0777CF" transform="translate(553,488)"/>
<path d="M0 0 C0.66 0.66 1.32 1.32 2 2 C1.34 2 0.68 2 0 2 C0 1.34 0 0.68 0 0 Z " fill="#0B80D5" transform="translate(529,445)"/>
<path d="M0 0 C0.99 0.495 0.99 0.495 2 1 C1.01 1.495 1.01 1.495 0 2 C0 1.34 0 0.68 0 0 Z " fill="#0981D6" transform="translate(520,432)"/>
<path d="" fill="#0853A8" transform="translate(0,0)"/>
<path d="" fill="#0854AA" transform="translate(0,0)"/>
<path d="" fill="#0955A8" transform="translate(0,0)"/>
<path d="" fill="#0857AD" transform="translate(0,0)"/>
<path d="" fill="#0A58AF" transform="translate(0,0)"/>
<path d="" fill="#0C5FB3" transform="translate(0,0)"/>
<path d="M0 0 C2 1 2 1 2 1 Z " fill="#0A63BB" transform="translate(617,600)"/>
<path d="M0 0 C2 1 2 1 2 1 Z " fill="#0863B7" transform="translate(297,576)"/>
<path d="" fill="#0A6BC1" transform="translate(0,0)"/>
<path d="M0 0 C2 1 2 1 2 1 Z " fill="#086BC5" transform="translate(584,543)"/>
<path d="" fill="#0775CF" transform="translate(0,0)"/>
<path d="" fill="#0978CB" transform="translate(0,0)"/>
<path d="M0 0 C2 1 2 1 2 1 Z " fill="#0B78D0" transform="translate(469,487)"/>
<path d="" fill="#0B7ACF" transform="translate(0,0)"/>
<path d="" fill="#097FCB" transform="translate(0,0)"/>
<path d="" fill="#0A7FD6" transform="translate(0,0)"/>
<path d="" fill="#0982CF" transform="translate(0,0)"/>
<path d="" fill="#0985DA" transform="translate(0,0)"/>
<path d="" fill="#0B88D4" transform="translate(0,0)"/>
<path d="M0 0 C2 1 2 1 2 1 Z " fill="#0B85D2" transform="translate(622,396)"/>
<path d="" fill="#0A8AD6" transform="translate(0,0)"/>
<path d="" fill="#0D8ED5" transform="translate(0,0)"/>
<path d="M0 0 C2 1 2 1 2 1 Z " fill="#0B98DE" transform="translate(456,299)"/>
<path d="M0 0 C2 1 2 1 2 1 Z " fill="#0998DE" transform="translate(472,271)"/>
<path d="" fill="#0B80B5" transform="translate(0,0)"/>
<path d="" fill="#000000" transform="translate(0,0)"/>
<path d="" fill="#000000" transform="translate(0,0)"/>
<path d="" fill="#000000" transform="translate(0,0)"/>
<path d="" fill="#000000" transform="translate(0,0)"/>
<path d="" fill="#073670" transform="translate(0,0)"/>
<path d="" fill="#07438D" transform="translate(0,0)"/>
<path d="" fill="#033976" transform="translate(0,0)"/>
<path d="" fill="#06376D" transform="translate(0,0)"/>
<path d="" fill="#05438E" transform="translate(0,0)"/>
<path d="" fill="#053975" transform="translate(0,0)"/>
<path d="" fill="#084A98" transform="translate(0,0)"/>
<path d="" fill="#084288" transform="translate(0,0)"/>
<path d="" fill="#094C9B" transform="translate(0,0)"/>
<path d="" fill="#064E9D" transform="translate(0,0)"/>
<path d="" fill="#074D9C" transform="translate(0,0)"/>
<path d="" fill="#0A4E9C" transform="translate(0,0)"/>
<path d="" fill="#064D9D" transform="translate(0,0)"/>
<path d="" fill="#0A4A91" transform="translate(0,0)"/>
<path d="" fill="#074D9C" transform="translate(0,0)"/>
<path d="" fill="#0750A0" transform="translate(0,0)"/>
<path d="" fill="#074EA3" transform="translate(0,0)"/>
<path d="" fill="#084FA1" transform="translate(0,0)"/>
<path d="" fill="#0953A4" transform="translate(0,0)"/>
<path d="" fill="#084EA1" transform="translate(0,0)"/>
<path d="" fill="#0752A5" transform="translate(0,0)"/>
<path d="" fill="#074FA1" transform="translate(0,0)"/>
<path d="" fill="#084F9E" transform="translate(0,0)"/>
<path d="" fill="#0752A6" transform="translate(0,0)"/>
<path d="" fill="#0B4F9D" transform="translate(0,0)"/>
<path d="" fill="#0955AC" transform="translate(0,0)"/>
<path d="" fill="#0754A8" transform="translate(0,0)"/>
<path d="" fill="#07509E" transform="translate(0,0)"/>
<path d="" fill="#0953A7" transform="translate(0,0)"/>
<path d="" fill="#074FA1" transform="translate(0,0)"/>
<path d="" fill="#0B50A0" transform="translate(0,0)"/>
<path d="" fill="#0B529F" transform="translate(0,0)"/>
<path d="" fill="#0A4E9B" transform="translate(0,0)"/>
<path d="" fill="#0853A7" transform="translate(0,0)"/>
<path d="" fill="#0855AC" transform="translate(0,0)"/>
<path d="" fill="#0A52A8" transform="translate(0,0)"/>
<path d="" fill="#0856AD" transform="translate(0,0)"/>
<path d="" fill="#0953A6" transform="translate(0,0)"/>
<path d="" fill="#0A57AA" transform="translate(0,0)"/>
<path d="" fill="#0253A8" transform="translate(0,0)"/>
<path d="" fill="#0A53AC" transform="translate(0,0)"/>
<path d="" fill="#0A5BB5" transform="translate(0,0)"/>
<path d="" fill="#085DBA" transform="translate(0,0)"/>
<path d="" fill="#0A58AB" transform="translate(0,0)"/>
<path d="" fill="#0753A4" transform="translate(0,0)"/>
<path d="" fill="#0A5BB1" transform="translate(0,0)"/>
<path d="" fill="#0A59AF" transform="translate(0,0)"/>
<path d="" fill="#0B5EB4" transform="translate(0,0)"/>
<path d="" fill="#0856A6" transform="translate(0,0)"/>
<path d="" fill="#094E92" transform="translate(0,0)"/>
<path d="" fill="#0A58AF" transform="translate(0,0)"/>
<path d="" fill="#0858AB" transform="translate(0,0)"/>
<path d="" fill="#0C5CB5" transform="translate(0,0)"/>
<path d="" fill="#0859B2" transform="translate(0,0)"/>
<path d="" fill="#0B5CB4" transform="translate(0,0)"/>
<path d="" fill="#095AB1" transform="translate(0,0)"/>
<path d="" fill="#0A58AF" transform="translate(0,0)"/>
<path d="" fill="#0A58AB" transform="translate(0,0)"/>
<path d="" fill="#0B58AD" transform="translate(0,0)"/>
<path d="" fill="#0C5AB2" transform="translate(0,0)"/>
<path d="" fill="#095BB4" transform="translate(0,0)"/>
<path d="" fill="#0B5BAD" transform="translate(0,0)"/>
<path d="" fill="#085FB7" transform="translate(0,0)"/>
<path d="" fill="#085CAC" transform="translate(0,0)"/>
<path d="" fill="#095BB2" transform="translate(0,0)"/>
<path d="" fill="#0C60B6" transform="translate(0,0)"/>
<path d="" fill="#095FB8" transform="translate(0,0)"/>
<path d="" fill="#0C64B9" transform="translate(0,0)"/>
<path d="" fill="#0B5CAD" transform="translate(0,0)"/>
<path d="" fill="#095DB1" transform="translate(0,0)"/>
<path d="" fill="#0F5EB2" transform="translate(0,0)"/>
<path d="" fill="#0A5EB6" transform="translate(0,0)"/>
<path d="" fill="#0860BB" transform="translate(0,0)"/>
<path d="" fill="#0B5FAF" transform="translate(0,0)"/>
<path d="" fill="#0B5DB1" transform="translate(0,0)"/>
<path d="" fill="#0A5EB4" transform="translate(0,0)"/>
<path d="" fill="#0A5CAE" transform="translate(0,0)"/>
<path d="" fill="#055DB3" transform="translate(0,0)"/>
<path d="" fill="#0A5EB0" transform="translate(0,0)"/>
<path d="" fill="#0866BF" transform="translate(0,0)"/>
<path d="" fill="#0C63BB" transform="translate(0,0)"/>
<path d="" fill="#0B61BC" transform="translate(0,0)"/>
<path d="" fill="#0762BE" transform="translate(0,0)"/>
<path d="" fill="#0A5EB4" transform="translate(0,0)"/>
<path d="" fill="#0B5FB7" transform="translate(0,0)"/>
<path d="" fill="#0C63B9" transform="translate(0,0)"/>
<path d="" fill="#095EAF" transform="translate(0,0)"/>
<path d="" fill="#0B62B6" transform="translate(0,0)"/>
<path d="" fill="#0962B9" transform="translate(0,0)"/>
<path d="" fill="#0A61B8" transform="translate(0,0)"/>
<path d="" fill="#0A67BF" transform="translate(0,0)"/>
<path d="" fill="#0863B7" transform="translate(0,0)"/>
<path d="" fill="#0C63B8" transform="translate(0,0)"/>
<path d="" fill="#0865BF" transform="translate(0,0)"/>
<path d="" fill="#0B65BE" transform="translate(0,0)"/>
<path d="" fill="#0A62BB" transform="translate(0,0)"/>
<path d="" fill="#0C62B5" transform="translate(0,0)"/>
<path d="" fill="#0A65BA" transform="translate(0,0)"/>
<path d="" fill="#0B64BB" transform="translate(0,0)"/>
<path d="" fill="#0A63BB" transform="translate(0,0)"/>
<path d="" fill="#0863BE" transform="translate(0,0)"/>
<path d="" fill="#0B65BC" transform="translate(0,0)"/>
<path d="" fill="#0A65B6" transform="translate(0,0)"/>
<path d="" fill="#0B64B2" transform="translate(0,0)"/>
<path d="" fill="#0C66BE" transform="translate(0,0)"/>
<path d="" fill="#0C65B7" transform="translate(0,0)"/>
<path d="" fill="#0B65BC" transform="translate(0,0)"/>
<path d="" fill="#0763C0" transform="translate(0,0)"/>
<path d="" fill="#0A65BB" transform="translate(0,0)"/>
<path d="" fill="#0A67B7" transform="translate(0,0)"/>
<path d="" fill="#0B67C0" transform="translate(0,0)"/>
<path d="" fill="#0B68B7" transform="translate(0,0)"/>
<path d="" fill="#0B68BF" transform="translate(0,0)"/>
<path d="" fill="#0964BD" transform="translate(0,0)"/>
<path d="" fill="#0A66B5" transform="translate(0,0)"/>
<path d="" fill="#0B67BC" transform="translate(0,0)"/>
<path d="" fill="#0967B8" transform="translate(0,0)"/>
<path d="" fill="#0B64B8" transform="translate(0,0)"/>
<path d="" fill="#0466BB" transform="translate(0,0)"/>
<path d="" fill="#0A6CC1" transform="translate(0,0)"/>
<path d="" fill="#0F6CC2" transform="translate(0,0)"/>
<path d="" fill="#000000" transform="translate(0,0)"/>
<path d="" fill="#096CC0" transform="translate(0,0)"/>
<path d="" fill="#086AC3" transform="translate(0,0)"/>
<path d="" fill="#0767B8" transform="translate(0,0)"/>
<path d="" fill="#0A69C0" transform="translate(0,0)"/>
<path d="" fill="#096CC0" transform="translate(0,0)"/>
<path d="" fill="#0A69B8" transform="translate(0,0)"/>
<path d="" fill="#0A6FC8" transform="translate(0,0)"/>
<path d="" fill="#0B6EC2" transform="translate(0,0)"/>
<path d="" fill="#0C6FBE" transform="translate(0,0)"/>
<path d="" fill="#096DC6" transform="translate(0,0)"/>
<path d="" fill="#0970C5" transform="translate(0,0)"/>
<path d="" fill="#096FC8" transform="translate(0,0)"/>
<path d="" fill="#0C71BE" transform="translate(0,0)"/>
<path d="" fill="#0C72C0" transform="translate(0,0)"/>
<path d="" fill="#0874CD" transform="translate(0,0)"/>
<path d="" fill="#0A74C4" transform="translate(0,0)"/>
<path d="" fill="#0C72C2" transform="translate(0,0)"/>
<path d="" fill="#0974C4" transform="translate(0,0)"/>
<path d="" fill="#0878D1" transform="translate(0,0)"/>
<path d="" fill="#0B77CD" transform="translate(0,0)"/>
<path d="" fill="#0D78C4" transform="translate(0,0)"/>
<path d="" fill="#0A73C9" transform="translate(0,0)"/>
<path d="" fill="#0874C1" transform="translate(0,0)"/>
<path d="" fill="#0A7DD1" transform="translate(0,0)"/>
<path d="" fill="#0976CC" transform="translate(0,0)"/>
<path d="" fill="#0976C3" transform="translate(0,0)"/>
<path d="" fill="#0875CD" transform="translate(0,0)"/>
<path d="" fill="#0A7ACA" transform="translate(0,0)"/>
<path d="" fill="#0A78C9" transform="translate(0,0)"/>
<path d="" fill="#0A76CE" transform="translate(0,0)"/>
<path d="" fill="#0B79D0" transform="translate(0,0)"/>
<path d="" fill="#0979D2" transform="translate(0,0)"/>
<path d="" fill="#0D7BC7" transform="translate(0,0)"/>
<path d="" fill="#0C7BC9" transform="translate(0,0)"/>
<path d="" fill="#0C7DCD" transform="translate(0,0)"/>
<path d="" fill="#0A7DCA" transform="translate(0,0)"/>
<path d="" fill="#0A7BCC" transform="translate(0,0)"/>
<path d="" fill="#077BCF" transform="translate(0,0)"/>
<path d="" fill="#0C7BCF" transform="translate(0,0)"/>
<path d="" fill="#0980CF" transform="translate(0,0)"/>
<path d="" fill="#0A80D4" transform="translate(0,0)"/>
<path d="" fill="#0980D3" transform="translate(0,0)"/>
<path d="" fill="#0B81CE" transform="translate(0,0)"/>
<path d="" fill="#097FD4" transform="translate(0,0)"/>
<path d="" fill="#0B7DD1" transform="translate(0,0)"/>
<path d="" fill="#0C7ED8" transform="translate(0,0)"/>
<path d="" fill="#0982D2" transform="translate(0,0)"/>
<path d="" fill="#0C83D1" transform="translate(0,0)"/>
<path d="" fill="#0982D7" transform="translate(0,0)"/>
<path d="" fill="#0A83D0" transform="translate(0,0)"/>
<path d="" fill="#0883D3" transform="translate(0,0)"/>
<path d="" fill="#0B80D4" transform="translate(0,0)"/>
<path d="" fill="#0B84D0" transform="translate(0,0)"/>
<path d="" fill="#0C82D8" transform="translate(0,0)"/>
<path d="" fill="#1085D2" transform="translate(0,0)"/>
<path d="" fill="#0B82CF" transform="translate(0,0)"/>
<path d="" fill="#0A81D6" transform="translate(0,0)"/>
<path d="" fill="#0B83DA" transform="translate(0,0)"/>
<path d="" fill="#0984DA" transform="translate(0,0)"/>
<path d="" fill="#0A84D0" transform="translate(0,0)"/>
<path d="" fill="#0B87D3" transform="translate(0,0)"/>
<path d="" fill="#0D86D2" transform="translate(0,0)"/>
<path d="" fill="#0B89D3" transform="translate(0,0)"/>
<path d="" fill="#0A84CC" transform="translate(0,0)"/>
<path d="" fill="#0987D2" transform="translate(0,0)"/>
<path d="" fill="#0C87D6" transform="translate(0,0)"/>
<path d="" fill="#0785D0" transform="translate(0,0)"/>
<path d="" fill="#0A89D5" transform="translate(0,0)"/>
<path d="" fill="#0989D2" transform="translate(0,0)"/>
<path d="" fill="#0A86D3" transform="translate(0,0)"/>
<path d="" fill="#0986D0" transform="translate(0,0)"/>
<path d="" fill="#0A88D5" transform="translate(0,0)"/>
<path d="" fill="#0D89D1" transform="translate(0,0)"/>
<path d="" fill="#0A8AD7" transform="translate(0,0)"/>
<path d="" fill="#0B8FD8" transform="translate(0,0)"/>
<path d="" fill="#0A87CA" transform="translate(0,0)"/>
<path d="" fill="#098CD6" transform="translate(0,0)"/>
<path d="" fill="#0790DD" transform="translate(0,0)"/>
<path d="" fill="#0A8FD9" transform="translate(0,0)"/>
<path d="" fill="#0A8FD8" transform="translate(0,0)"/>
<path d="" fill="#0A96DB" transform="translate(0,0)"/>
<path d="" fill="#099ADE" transform="translate(0,0)"/>
<path d="" fill="#0E96DA" transform="translate(0,0)"/>
<path d="" fill="#0B98DB" transform="translate(0,0)"/>
<path d="" fill="#0995DD" transform="translate(0,0)"/>
<path d="" fill="#0B97DE" transform="translate(0,0)"/>
<path d="" fill="#0D98DD" transform="translate(0,0)"/>
<path d="" fill="#0699DF" transform="translate(0,0)"/>
<path d="" fill="#0A9FE3" transform="translate(0,0)"/>
<path d="" fill="#0998DB" transform="translate(0,0)"/>
<path d="" fill="#0C9CE0" transform="translate(0,0)"/>
<path d="" fill="#0A9CDC" transform="translate(0,0)"/>
<path d="" fill="#0D9CDF" transform="translate(0,0)"/>
<path d="" fill="#089ADE" transform="translate(0,0)"/>
<path d="" fill="#0B9CDF" transform="translate(0,0)"/>
<path d="" fill="#0C97DB" transform="translate(0,0)"/>
<path d="" fill="#0C98DC" transform="translate(0,0)"/>
<path d="" fill="#0C97DC" transform="translate(0,0)"/>
<path d="" fill="#0C9ADC" transform="translate(0,0)"/>
<path d="" fill="#0D9AD9" transform="translate(0,0)"/>
<path d="" fill="#0B96DA" transform="translate(0,0)"/>
<path d="" fill="#0B9BDC" transform="translate(0,0)"/>
<path d="" fill="#0F97D3" transform="translate(0,0)"/>
<path d="" fill="#0C92D0" transform="translate(0,0)"/>
<path d="" fill="#0F8ECB" transform="translate(0,0)"/>
<path d="" fill="#0B94D3" transform="translate(0,0)"/>
<path d="" fill="#098ECB" transform="translate(0,0)"/>
<path d="" fill="#0C8FCC" transform="translate(0,0)"/>
<path d="" fill="#0B8CCA" transform="translate(0,0)"/>
<path d="" fill="#0B89C4" transform="translate(0,0)"/>
<path d="" fill="#0B8CC8" transform="translate(0,0)"/>
<path d="" fill="#1081BB" transform="translate(0,0)"/>
<path d="" fill="#0A77A9" transform="translate(0,0)"/>
<path d="" fill="#000000" transform="translate(0,0)"/>
</svg>
